<mxfile host="app.diagrams.net" modified="2020-11-03T00:41:13.929Z" agent="5.0 (Macintosh; Intel Mac OS X 10_15_7) AppleWebKit/537.36 (KHTML, like Gecko) Chrome/86.0.4240.111 Safari/537.36 Edg/86.0.622.51" etag="WI2Y4F84G79Ro-UFxbrm" version="13.8.8" type="github">
  <diagram id="EafCfjscLrXSABuNNEOU" name="Page-1">
    <mxGraphModel dx="1510" dy="797" grid="0" gridSize="10" guides="1" tooltips="1" connect="1" arrows="1" fold="1" page="0" pageScale="1" pageWidth="1920" pageHeight="1200" background="#B0B0B0" math="0" shadow="0">
      <root>
        <mxCell id="0" />
        <mxCell id="1" parent="0" />
        <mxCell id="66" value="" style="icon;html=1;labelBackgroundColor=none;labelPosition=center;verticalLabelPosition=bottom;align=center;verticalAlign=top;strokeColor=#000000;fillColor=#FFFFFF;fontColor=#FFFFFF;" parent="1" vertex="1">
          <mxGeometry x="60" y="80" width="240" height="450" as="geometry" />
        </mxCell>
        <mxCell id="67" value="Profile&lt;br&gt;Service" style="html=1;dashed=0;whitespace=wrap;strokeColor=#000000;fillColor=#FFFFFF;fontColor=#000000;" parent="1" vertex="1">
          <mxGeometry x="380" y="659" width="120" height="50" as="geometry" />
        </mxCell>
        <mxCell id="68" value="Menu&lt;br&gt;Service" style="html=1;dashed=0;whitespace=wrap;strokeColor=#000000;fillColor=#FFFFFF;fontColor=#000000;" parent="1" vertex="1">
          <mxGeometry x="580" y="659" width="120" height="50" as="geometry" />
        </mxCell>
        <mxCell id="69" value="" style="aspect=fixed;perimeter=ellipsePerimeter;html=1;align=center;shadow=0;dashed=0;spacingTop=3;image;image=img/lib/active_directory/database.svg;strokeColor=#000000;fillColor=#FFFFFF;fontColor=#000000;" parent="1" vertex="1">
          <mxGeometry x="470" y="689" width="27.03" height="20" as="geometry" />
        </mxCell>
        <mxCell id="70" value="" style="aspect=fixed;perimeter=ellipsePerimeter;html=1;align=center;shadow=0;dashed=0;spacingTop=3;image;image=img/lib/active_directory/database.svg;strokeColor=#000000;fillColor=#FFFFFF;fontColor=#000000;" parent="1" vertex="1">
          <mxGeometry x="670" y="689" width="27.03" height="20" as="geometry" />
        </mxCell>
        <mxCell id="71" value="Feedback&lt;br&gt;Service" style="html=1;dashed=0;whitespace=wrap;strokeColor=#000000;fillColor=#FFFFFF;fontColor=#000000;" parent="1" vertex="1">
          <mxGeometry x="780" y="659" width="120" height="50" as="geometry" />
        </mxCell>
        <mxCell id="72" value="" style="aspect=fixed;perimeter=ellipsePerimeter;html=1;align=center;shadow=0;dashed=0;spacingTop=3;image;image=img/lib/active_directory/database.svg;strokeColor=#000000;fillColor=#FFFFFF;fontColor=#000000;" parent="1" vertex="1">
          <mxGeometry x="870" y="689" width="27.03" height="20" as="geometry" />
        </mxCell>
        <mxCell id="73" value="Campaign&lt;br&gt;Service" style="html=1;dashed=0;whitespace=wrap;strokeColor=#000000;fillColor=#FFFFFF;fontColor=#000000;" parent="1" vertex="1">
          <mxGeometry x="980" y="659" width="120" height="50" as="geometry" />
        </mxCell>
        <mxCell id="74" value="" style="aspect=fixed;perimeter=ellipsePerimeter;html=1;align=center;shadow=0;dashed=0;spacingTop=3;image;image=img/lib/active_directory/database.svg;strokeColor=#000000;fillColor=#FFFFFF;fontColor=#000000;" parent="1" vertex="1">
          <mxGeometry x="1070" y="689" width="27.03" height="20" as="geometry" />
        </mxCell>
        <mxCell id="75" style="edgeStyle=orthogonalEdgeStyle;rounded=1;orthogonalLoop=1;jettySize=auto;html=1;entryX=0.875;entryY=0.04;entryDx=0;entryDy=0;entryPerimeter=0;startArrow=none;startFill=0;endArrow=classic;endFill=1;fontColor=#000000;strokeColor=#1BA1E2;" parent="1" source="77" target="93" edge="1">
          <mxGeometry relative="1" as="geometry" />
        </mxCell>
        <mxCell id="76" style="edgeStyle=orthogonalEdgeStyle;rounded=1;orthogonalLoop=1;jettySize=auto;html=1;exitX=0.75;exitY=0;exitDx=0;exitDy=0;entryX=0.25;entryY=0;entryDx=0;entryDy=0;startArrow=none;startFill=0;endArrow=classic;endFill=1;fontColor=#000000;strokeColor=#FFFFFF;dashed=1;" parent="1" source="77" target="119" edge="1">
          <mxGeometry relative="1" as="geometry">
            <Array as="points">
              <mxPoint x="1270" y="589" />
              <mxPoint x="1390" y="589" />
            </Array>
          </mxGeometry>
        </mxCell>
        <mxCell id="77" value="Order&lt;br&gt;Service" style="html=1;dashed=0;whitespace=wrap;strokeColor=#000000;fillColor=#FFFFFF;fontColor=#000000;" parent="1" vertex="1">
          <mxGeometry x="1180" y="659" width="120" height="50" as="geometry" />
        </mxCell>
        <mxCell id="78" value="" style="aspect=fixed;perimeter=ellipsePerimeter;html=1;align=center;shadow=0;dashed=0;spacingTop=3;image;image=img/lib/active_directory/database.svg;strokeColor=#000000;fillColor=#FFFFFF;fontColor=#000000;" parent="1" vertex="1">
          <mxGeometry x="1270" y="689" width="27.03" height="20" as="geometry" />
        </mxCell>
        <mxCell id="79" style="edgeStyle=orthogonalEdgeStyle;orthogonalLoop=1;jettySize=auto;html=1;entryX=0.5;entryY=0;entryDx=0;entryDy=0;startArrow=none;startFill=0;endArrow=classic;endFill=1;fontColor=#000000;rounded=1;strokeColor=#97E861;" parent="1" source="83" target="67" edge="1">
          <mxGeometry relative="1" as="geometry">
            <Array as="points">
              <mxPoint x="530" y="584" />
              <mxPoint x="440" y="584" />
            </Array>
          </mxGeometry>
        </mxCell>
        <mxCell id="80" style="edgeStyle=orthogonalEdgeStyle;rounded=1;orthogonalLoop=1;jettySize=auto;html=1;exitX=0.5;exitY=1;exitDx=0;exitDy=0;entryX=0.5;entryY=0;entryDx=0;entryDy=0;startArrow=none;startFill=0;endArrow=classic;endFill=1;fontColor=#000000;strokeColor=#97E861;" parent="1" source="83" target="68" edge="1">
          <mxGeometry relative="1" as="geometry">
            <Array as="points">
              <mxPoint x="570" y="609" />
              <mxPoint x="640" y="609" />
            </Array>
          </mxGeometry>
        </mxCell>
        <mxCell id="81" style="edgeStyle=orthogonalEdgeStyle;rounded=1;orthogonalLoop=1;jettySize=auto;html=1;entryX=0.342;entryY=0.02;entryDx=0;entryDy=0;entryPerimeter=0;startArrow=none;startFill=0;endArrow=classic;endFill=1;fontColor=#000000;strokeColor=#97E861;" parent="1" source="83" target="71" edge="1">
          <mxGeometry relative="1" as="geometry" />
        </mxCell>
        <mxCell id="82" style="edgeStyle=orthogonalEdgeStyle;rounded=1;orthogonalLoop=1;jettySize=auto;html=1;exitX=0.75;exitY=1;exitDx=0;exitDy=0;entryX=0.25;entryY=0;entryDx=0;entryDy=0;startArrow=none;startFill=0;endArrow=classic;endFill=1;fontColor=#000000;strokeColor=#97E861;" parent="1" source="83" target="73" edge="1">
          <mxGeometry relative="1" as="geometry">
            <Array as="points">
              <mxPoint x="610" y="584" />
              <mxPoint x="1010" y="584" />
            </Array>
          </mxGeometry>
        </mxCell>
        <mxCell id="83" value="Customer&lt;br&gt;App" style="html=1;dashed=0;whitespace=wrap;strokeColor=#82b366;gradientColor=#97d077;fontColor=#000000;fillColor=#97E861;" parent="1" vertex="1">
          <mxGeometry x="490" y="459" width="160" height="50" as="geometry" />
        </mxCell>
        <mxCell id="84" style="edgeStyle=orthogonalEdgeStyle;rounded=1;orthogonalLoop=1;jettySize=auto;html=1;entryX=0.5;entryY=1;entryDx=0;entryDy=0;startArrow=none;startFill=0;endArrow=classic;endFill=1;fontColor=#000000;strokeColor=#F8CECC;" parent="1" source="88" target="67" edge="1">
          <mxGeometry relative="1" as="geometry">
            <Array as="points">
              <mxPoint x="440" y="924" />
            </Array>
          </mxGeometry>
        </mxCell>
        <mxCell id="85" style="edgeStyle=orthogonalEdgeStyle;rounded=1;orthogonalLoop=1;jettySize=auto;html=1;exitX=0.25;exitY=0;exitDx=0;exitDy=0;entryX=0;entryY=0.5;entryDx=0;entryDy=0;startArrow=none;startFill=0;endArrow=classic;endFill=1;fontColor=#000000;strokeColor=#F8CECC;" parent="1" source="88" target="68" edge="1">
          <mxGeometry relative="1" as="geometry" />
        </mxCell>
        <mxCell id="86" style="edgeStyle=orthogonalEdgeStyle;rounded=1;orthogonalLoop=1;jettySize=auto;html=1;exitX=0.5;exitY=0;exitDx=0;exitDy=0;entryX=0.25;entryY=1;entryDx=0;entryDy=0;startArrow=none;startFill=0;endArrow=classic;endFill=1;fontColor=#000000;strokeColor=#F8CECC;" parent="1" source="88" target="71" edge="1">
          <mxGeometry relative="1" as="geometry" />
        </mxCell>
        <mxCell id="87" style="edgeStyle=orthogonalEdgeStyle;rounded=1;orthogonalLoop=1;jettySize=auto;html=1;exitX=0.75;exitY=0;exitDx=0;exitDy=0;entryX=0.25;entryY=1;entryDx=0;entryDy=0;startArrow=none;startFill=0;endArrow=classic;endFill=1;fontColor=#000000;strokeColor=#F8CECC;" parent="1" source="88" target="73" edge="1">
          <mxGeometry relative="1" as="geometry">
            <Array as="points">
              <mxPoint x="617" y="829" />
              <mxPoint x="1010" y="829" />
            </Array>
          </mxGeometry>
        </mxCell>
        <mxCell id="257" style="edgeStyle=orthogonalEdgeStyle;rounded=1;orthogonalLoop=1;jettySize=auto;html=1;entryX=0.25;entryY=1;entryDx=0;entryDy=0;fontColor=#FFFFFF;strokeColor=#F8CECC;" parent="1" source="88" target="119" edge="1">
          <mxGeometry relative="1" as="geometry">
            <Array as="points">
              <mxPoint x="651" y="841" />
              <mxPoint x="1390" y="841" />
            </Array>
          </mxGeometry>
        </mxCell>
        <mxCell id="88" value="Admin&lt;br&gt;App" style="html=1;dashed=0;whitespace=wrap;strokeColor=#b85450;fillColor=#f8cecc;gradientColor=#ea6b66;fontColor=#000000;" parent="1" vertex="1">
          <mxGeometry x="497.03" y="899" width="160" height="50" as="geometry" />
        </mxCell>
        <mxCell id="89" style="edgeStyle=orthogonalEdgeStyle;rounded=1;orthogonalLoop=1;jettySize=auto;html=1;exitX=0.25;exitY=0;exitDx=0;exitDy=0;entryX=0;entryY=1;entryDx=0;entryDy=0;startArrow=none;startFill=0;endArrow=classic;endFill=1;fontColor=#000000;strokeColor=#1BA1E2;" parent="1" source="93" target="72" edge="1">
          <mxGeometry relative="1" as="geometry" />
        </mxCell>
        <mxCell id="90" style="edgeStyle=orthogonalEdgeStyle;rounded=1;orthogonalLoop=1;jettySize=auto;html=1;entryX=0.25;entryY=1;entryDx=0;entryDy=0;startArrow=none;startFill=0;endArrow=classic;endFill=1;fontColor=#000000;strokeColor=#1BA1E2;" parent="1" source="93" target="78" edge="1">
          <mxGeometry relative="1" as="geometry" />
        </mxCell>
        <mxCell id="91" style="edgeStyle=orthogonalEdgeStyle;rounded=1;orthogonalLoop=1;jettySize=auto;html=1;entryX=1;entryY=0.5;entryDx=0;entryDy=0;startArrow=none;startFill=0;endArrow=classic;endFill=1;fontColor=#000000;strokeColor=#1BA1E2;" parent="1" source="93" target="68" edge="1">
          <mxGeometry relative="1" as="geometry">
            <Array as="points">
              <mxPoint x="750" y="939" />
              <mxPoint x="750" y="684" />
            </Array>
          </mxGeometry>
        </mxCell>
        <mxCell id="92" style="edgeStyle=orthogonalEdgeStyle;rounded=1;orthogonalLoop=1;jettySize=auto;html=1;exitX=0;exitY=0.25;exitDx=0;exitDy=0;entryX=0.75;entryY=1;entryDx=0;entryDy=0;startArrow=none;startFill=0;endArrow=classic;endFill=1;fontColor=#000000;strokeColor=#1BA1E2;" parent="1" source="93" target="67" edge="1">
          <mxGeometry relative="1" as="geometry">
            <Array as="points">
              <mxPoint x="950" y="912" />
              <mxPoint x="950" y="849" />
              <mxPoint x="470" y="849" />
            </Array>
          </mxGeometry>
        </mxCell>
        <mxCell id="93" value="Vendor&lt;br&gt;App" style="html=1;dashed=0;whitespace=wrap;strokeColor=#006EAF;fillColor=#1ba1e2;fontColor=#ffffff;" parent="1" vertex="1">
          <mxGeometry x="1020" y="899" width="160" height="50" as="geometry" />
        </mxCell>
        <mxCell id="94" style="edgeStyle=orthogonalEdgeStyle;rounded=1;orthogonalLoop=1;jettySize=auto;html=1;startArrow=none;startFill=0;endArrow=classic;endFill=1;fontColor=#000000;strokeColor=#97E861;" parent="1" source="95" target="77" edge="1">
          <mxGeometry relative="1" as="geometry">
            <Array as="points">
              <mxPoint x="637" y="549" />
              <mxPoint x="1240" y="549" />
            </Array>
          </mxGeometry>
        </mxCell>
        <mxCell id="95" value="" style="dashed=0;aspect=fixed;verticalLabelPosition=bottom;verticalAlign=top;align=center;shape=mxgraph.gmdl.gps;strokeColor=#737373;shadow=0;strokeWidth=2;fontColor=#000000;fillColor=#000000;" parent="1" vertex="1">
          <mxGeometry x="627.03" y="489" width="20" height="20" as="geometry" />
        </mxCell>
        <mxCell id="96" value="GPS Aware app or service" style="html=1;dashed=0;whitespace=wrap;strokeColor=#000000;fillColor=#FFFFFF;fontColor=#000000;" parent="1" vertex="1">
          <mxGeometry x="100" y="121" width="160" height="50" as="geometry" />
        </mxCell>
        <mxCell id="97" value="" style="dashed=0;aspect=fixed;verticalLabelPosition=bottom;verticalAlign=top;align=center;shape=mxgraph.gmdl.gps;strokeColor=#737373;fillColor=#737373;shadow=0;strokeWidth=2;fontColor=#000000;" parent="1" vertex="1">
          <mxGeometry x="237.03" y="151" width="20" height="20" as="geometry" />
        </mxCell>
        <mxCell id="98" value="Micro service&lt;br&gt;with own &lt;br&gt;data store" style="html=1;dashed=0;whitespace=wrap;strokeColor=#000000;fillColor=#FFFFFF;fontColor=#000000;" parent="1" vertex="1">
          <mxGeometry x="100" y="191" width="160" height="50" as="geometry" />
        </mxCell>
        <mxCell id="99" value="" style="aspect=fixed;perimeter=ellipsePerimeter;html=1;align=center;shadow=0;dashed=0;spacingTop=3;image;image=img/lib/active_directory/database.svg;strokeColor=#000000;fillColor=#FFFFFF;fontColor=#000000;" parent="1" vertex="1">
          <mxGeometry x="230" y="221" width="27.03" height="20" as="geometry" />
        </mxCell>
        <mxCell id="100" value="Micro service&lt;br&gt;with&lt;br&gt;event queue" style="html=1;dashed=0;whitespace=wrap;strokeColor=#000000;fillColor=#FFFFFF;fontColor=#000000;" parent="1" vertex="1">
          <mxGeometry x="100" y="271" width="160" height="50" as="geometry" />
        </mxCell>
        <mxCell id="101" value="" style="outlineConnect=0;fontColor=#232F3E;gradientColor=none;strokeColor=#232F3E;fillColor=#ffffff;dashed=0;verticalLabelPosition=bottom;verticalAlign=top;align=center;html=1;fontSize=12;fontStyle=0;aspect=fixed;shape=mxgraph.aws4.resourceIcon;resIcon=mxgraph.aws4.queue;" parent="1" vertex="1">
          <mxGeometry x="227.03" y="289" width="30" height="30" as="geometry" />
        </mxCell>
        <mxCell id="102" value="Legend" style="text;html=1;align=center;verticalAlign=middle;resizable=0;points=[];autosize=1;fontColor=#000000;" parent="1" vertex="1">
          <mxGeometry x="150" y="81" width="60" height="20" as="geometry" />
        </mxCell>
        <mxCell id="103" value="Stateless&lt;br&gt;Application/Service" style="html=1;dashed=0;whitespace=wrap;strokeColor=#000000;fillColor=#FFFFFF;fontColor=#000000;" parent="1" vertex="1">
          <mxGeometry x="100" y="341" width="160" height="50" as="geometry" />
        </mxCell>
        <mxCell id="104" style="edgeStyle=orthogonalEdgeStyle;rounded=1;orthogonalLoop=1;jettySize=auto;html=1;entryX=0.5;entryY=0;entryDx=0;entryDy=0;startArrow=none;startFill=0;endArrow=classic;endFill=1;fontColor=#D5E8D4;strokeColor=#D5E8D4;" parent="1" source="106" target="83" edge="1">
          <mxGeometry relative="1" as="geometry" />
        </mxCell>
        <mxCell id="105" style="edgeStyle=orthogonalEdgeStyle;rounded=1;orthogonalLoop=1;jettySize=auto;html=1;startArrow=none;startFill=0;endArrow=classic;endFill=1;fontColor=#000000;exitX=0.9;exitY=0.5;exitDx=0;exitDy=0;exitPerimeter=0;strokeColor=#97E861;" parent="1" source="106" target="124" edge="1">
          <mxGeometry relative="1" as="geometry">
            <Array as="points">
              <mxPoint x="618" y="392" />
              <mxPoint x="618" y="319" />
              <mxPoint x="1760" y="319" />
            </Array>
            <mxPoint x="618" y="452" as="sourcePoint" />
          </mxGeometry>
        </mxCell>
        <mxCell id="106" value="Customer" style="shape=actor;whiteSpace=wrap;html=1;sketch=0;strokeColor=#000000;labelPosition=center;verticalLabelPosition=top;align=center;verticalAlign=bottom;fillColor=#97E861;" parent="1" vertex="1">
          <mxGeometry x="550" y="362" width="40" height="60" as="geometry" />
        </mxCell>
        <mxCell id="107" style="edgeStyle=orthogonalEdgeStyle;rounded=1;orthogonalLoop=1;jettySize=auto;html=1;entryX=0.456;entryY=1;entryDx=0;entryDy=0;entryPerimeter=0;startArrow=none;startFill=0;endArrow=classic;endFill=1;fontColor=#F8CECC;strokeColor=#F8CECC;" parent="1" source="108" target="88" edge="1">
          <mxGeometry relative="1" as="geometry" />
        </mxCell>
        <mxCell id="108" value="Admin&lt;br&gt;Marketing" style="shape=actor;whiteSpace=wrap;html=1;sketch=0;strokeColor=#000000;labelPosition=center;verticalLabelPosition=bottom;align=center;verticalAlign=top;fillColor=#F8CECC;" parent="1" vertex="1">
          <mxGeometry x="550" y="989" width="40" height="60" as="geometry" />
        </mxCell>
        <mxCell id="109" style="edgeStyle=orthogonalEdgeStyle;rounded=1;orthogonalLoop=1;jettySize=auto;html=1;entryX=0.5;entryY=1;entryDx=0;entryDy=0;startArrow=none;startFill=0;endArrow=classic;endFill=1;fontColor=#1BA1E2;strokeColor=#1BA1E2;" parent="1" source="110" target="93" edge="1">
          <mxGeometry relative="1" as="geometry" />
        </mxCell>
        <mxCell id="110" value="Vendor" style="shape=actor;whiteSpace=wrap;html=1;sketch=0;strokeColor=#000000;labelPosition=center;verticalLabelPosition=bottom;align=center;verticalAlign=top;fillColor=#1BA1E2;fontColor=#FFF;" parent="1" vertex="1">
          <mxGeometry x="1080" y="989" width="40" height="60" as="geometry" />
        </mxCell>
        <mxCell id="111" value="Service Agent&lt;br&gt;App" style="html=1;dashed=0;whitespace=wrap;strokeColor=#A50040;fillColor=#d80073;fontColor=#ffffff;" parent="1" vertex="1">
          <mxGeometry x="1020" y="459" width="160" height="50" as="geometry" />
        </mxCell>
        <mxCell id="112" style="edgeStyle=orthogonalEdgeStyle;rounded=1;orthogonalLoop=1;jettySize=auto;html=1;entryX=0.5;entryY=0;entryDx=0;entryDy=0;startArrow=none;startFill=0;endArrow=classic;endFill=1;fontColor=#000000;strokeColor=#D80073;" parent="1" source="114" target="111" edge="1">
          <mxGeometry relative="1" as="geometry" />
        </mxCell>
        <mxCell id="113" style="edgeStyle=orthogonalEdgeStyle;rounded=1;orthogonalLoop=1;jettySize=auto;html=1;startArrow=none;startFill=0;endArrow=classic;endFill=1;fontColor=#000000;strokeColor=#D80073;" parent="1" source="114" target="124" edge="1">
          <mxGeometry relative="1" as="geometry" />
        </mxCell>
        <mxCell id="114" value="Service&lt;br&gt;Agent" style="shape=actor;whiteSpace=wrap;html=1;sketch=0;strokeColor=#000000;labelPosition=center;verticalLabelPosition=top;align=center;verticalAlign=bottom;fillColor=#D80073;fontColor=#FFFFFF;" parent="1" vertex="1">
          <mxGeometry x="1080" y="362" width="40" height="60" as="geometry" />
        </mxCell>
        <mxCell id="115" style="edgeStyle=orthogonalEdgeStyle;rounded=1;orthogonalLoop=1;jettySize=auto;html=1;entryX=0.75;entryY=0;entryDx=0;entryDy=0;startArrow=none;startFill=0;endArrow=classic;endFill=1;strokeColor=#FFFFFF;fontColor=#000000;" parent="1" source="116" target="67" edge="1">
          <mxGeometry relative="1" as="geometry">
            <Array as="points">
              <mxPoint x="1600" y="619" />
              <mxPoint x="470" y="619" />
            </Array>
          </mxGeometry>
        </mxCell>
        <mxCell id="116" value="Payment&lt;br&gt;Service" style="html=1;dashed=0;whitespace=wrap;strokeColor=#000000;fillColor=#FFFFFF;fontColor=#000000;" parent="1" vertex="1">
          <mxGeometry x="1540" y="659" width="120" height="50" as="geometry" />
        </mxCell>
        <mxCell id="117" value="" style="aspect=fixed;perimeter=ellipsePerimeter;html=1;align=center;shadow=0;dashed=0;spacingTop=3;image;image=img/lib/active_directory/database.svg;strokeColor=#000000;fillColor=#FFFFFF;fontColor=#000000;" parent="1" vertex="1">
          <mxGeometry x="1630" y="689" width="27.03" height="20" as="geometry" />
        </mxCell>
        <mxCell id="118" style="edgeStyle=orthogonalEdgeStyle;rounded=1;orthogonalLoop=1;jettySize=auto;html=1;entryX=1;entryY=0.5;entryDx=0;entryDy=0;startArrow=none;startFill=0;endArrow=classic;endFill=1;fontColor=#000000;strokeColor=#D80073;" parent="1" source="119" target="111" edge="1">
          <mxGeometry relative="1" as="geometry">
            <Array as="points">
              <mxPoint x="1420" y="484" />
            </Array>
          </mxGeometry>
        </mxCell>
        <mxCell id="119" value="Scheduling&lt;br&gt;Service" style="html=1;dashed=0;whitespace=wrap;strokeColor=#000000;fillColor=#FFFFFF;fontColor=#000000;" parent="1" vertex="1">
          <mxGeometry x="1360" y="659" width="120" height="50" as="geometry" />
        </mxCell>
        <mxCell id="120" value="" style="aspect=fixed;perimeter=ellipsePerimeter;html=1;align=center;shadow=0;dashed=0;spacingTop=3;image;image=img/lib/active_directory/database.svg;strokeColor=#000000;fillColor=#FFFFFF;fontColor=#000000;" parent="1" vertex="1">
          <mxGeometry x="1450" y="689" width="27.03" height="20" as="geometry" />
        </mxCell>
        <mxCell id="272" style="edgeStyle=orthogonalEdgeStyle;rounded=0;orthogonalLoop=1;jettySize=auto;html=1;entryX=1;entryY=0.75;entryDx=0;entryDy=0;strokeColor=#97E861;startArrow=classic;startFill=1;endArrow=none;endFill=0;" parent="1" source="121" target="83" edge="1">
          <mxGeometry relative="1" as="geometry">
            <Array as="points">
              <mxPoint x="1744" y="538" />
              <mxPoint x="933" y="538" />
              <mxPoint x="933" y="497" />
            </Array>
          </mxGeometry>
        </mxCell>
        <mxCell id="121" value="Point Of Sale&lt;br&gt;Service" style="html=1;dashed=0;whitespace=wrap;strokeColor=#000000;fillColor=#FFFFFF;fontColor=#000000;" parent="1" vertex="1">
          <mxGeometry x="1720" y="659" width="120" height="50" as="geometry" />
        </mxCell>
        <mxCell id="122" value="" style="aspect=fixed;perimeter=ellipsePerimeter;html=1;align=center;shadow=0;dashed=0;spacingTop=3;image;image=img/lib/active_directory/database.svg;strokeColor=#000000;fillColor=#FFFFFF;fontColor=#000000;" parent="1" vertex="1">
          <mxGeometry x="1810" y="689" width="27.03" height="20" as="geometry" />
        </mxCell>
        <mxCell id="123" style="edgeStyle=orthogonalEdgeStyle;rounded=1;orthogonalLoop=1;jettySize=auto;html=1;entryX=0.442;entryY=0.04;entryDx=0;entryDy=0;entryPerimeter=0;dashed=1;startArrow=none;startFill=0;endArrow=classic;endFill=1;strokeColor=#FFFFFF;fontColor=#000000;" parent="1" source="124" target="121" edge="1">
          <mxGeometry relative="1" as="geometry" />
        </mxCell>
        <mxCell id="184" style="edgeStyle=orthogonalEdgeStyle;rounded=0;orthogonalLoop=1;jettySize=auto;html=1;entryX=0.608;entryY=0.073;entryDx=0;entryDy=0;entryPerimeter=0;fontColor=#000000;strokeColor=#FFFFFF;" parent="1" source="124" target="77" edge="1">
          <mxGeometry relative="1" as="geometry">
            <Array as="points">
              <mxPoint x="1740" y="527" />
              <mxPoint x="1253" y="527" />
            </Array>
          </mxGeometry>
        </mxCell>
        <mxCell id="124" value="Point Of Sale" style="verticalLabelPosition=top;aspect=fixed;html=1;verticalAlign=bottom;strokeColor=none;align=right;outlineConnect=0;shape=mxgraph.citrix.kiosk;sketch=0;fontColor=#FFFFFF;labelPosition=left;fillColor=#848D99;" parent="1" vertex="1">
          <mxGeometry x="1740" y="404" width="65" height="85" as="geometry" />
        </mxCell>
        <mxCell id="125" style="edgeStyle=orthogonalEdgeStyle;rounded=1;orthogonalLoop=1;jettySize=auto;html=1;exitX=0.75;exitY=0;exitDx=0;exitDy=0;entryX=0.425;entryY=1.06;entryDx=0;entryDy=0;entryPerimeter=0;startArrow=none;startFill=0;endArrow=classic;endFill=1;strokeColor=#FFFFFF;fontColor=#000000;" parent="1" source="130" target="121" edge="1">
          <mxGeometry relative="1" as="geometry" />
        </mxCell>
        <mxCell id="127" style="edgeStyle=orthogonalEdgeStyle;rounded=1;orthogonalLoop=1;jettySize=auto;html=1;entryX=0.25;entryY=1;entryDx=0;entryDy=0;startArrow=none;startFill=0;endArrow=classic;endFill=1;strokeColor=#FFFFFF;fontColor=#000000;dashed=1;" parent="1" source="130" target="116" edge="1">
          <mxGeometry relative="1" as="geometry" />
        </mxCell>
        <mxCell id="129" style="edgeStyle=orthogonalEdgeStyle;rounded=1;orthogonalLoop=1;jettySize=auto;html=1;entryX=1;entryY=0.5;entryDx=0;entryDy=0;startArrow=none;startFill=0;endArrow=classic;endFill=1;strokeColor=#FFFFFF;fontColor=#000000;dashed=1;" parent="1" source="130" target="77" edge="1">
          <mxGeometry relative="1" as="geometry">
            <Array as="points">
              <mxPoint x="1340" y="924" />
              <mxPoint x="1340" y="684" />
            </Array>
          </mxGeometry>
        </mxCell>
        <mxCell id="130" value="System" style="html=1;dashed=0;whitespace=wrap;strokeColor=#6c8ebf;fontColor=#000000;fillColor=#FFFFFF;" parent="1" vertex="1">
          <mxGeometry x="1510" y="899" width="160" height="50" as="geometry" />
        </mxCell>
        <mxCell id="131" value="" style="html=1;strokeWidth=1;shadow=0;dashed=0;shape=mxgraph.ios7.misc.notification;fillColor=#FF3B2F;strokeColor=none;buttonText=;strokeColor2=#222222;fontColor=#222222;fontSize=8;verticalLabelPosition=bottom;verticalAlign=top;align=center;sketch=0;" parent="1" vertex="1">
          <mxGeometry x="1349" y="889" width="34" height="27" as="geometry" />
        </mxCell>
        <mxCell id="132" value="" style="html=1;strokeWidth=1;shadow=0;dashed=0;shape=mxgraph.ios7.misc.notification;fillColor=#FF3B2F;strokeColor=none;buttonText=;strokeColor2=#222222;fontColor=#222222;fontSize=8;verticalLabelPosition=bottom;verticalAlign=top;align=center;sketch=0;" parent="1" vertex="1">
          <mxGeometry x="1290" y="553" width="34" height="27" as="geometry" />
        </mxCell>
        <mxCell id="134" value="" style="html=1;strokeWidth=1;shadow=0;dashed=0;shape=mxgraph.ios7.misc.notification;fillColor=#FF3B2F;strokeColor=none;buttonText=;strokeColor2=#222222;fontColor=#222222;fontSize=8;verticalLabelPosition=bottom;verticalAlign=top;align=center;sketch=0;" parent="1" vertex="1">
          <mxGeometry x="1371" y="451.5" width="34" height="27" as="geometry" />
        </mxCell>
        <mxCell id="137" value="" style="pointerEvents=1;shadow=0;dashed=0;html=1;strokeColor=none;fillColor=#DF8C42;labelPosition=center;verticalLabelPosition=bottom;verticalAlign=top;align=center;outlineConnect=0;shape=mxgraph.veeam2.scheduled_backups;sketch=0;fontColor=#FFFFFF;" parent="1" vertex="1">
          <mxGeometry x="1736" y="775" width="28" height="24" as="geometry" />
        </mxCell>
        <mxCell id="138" value="1" style="ellipse;whiteSpace=wrap;html=1;aspect=fixed;strokeWidth=2;fontFamily=Tahoma;spacingBottom=4;spacingRight=2;strokeColor=#d3d3d3;fontColor=#000000;fillColor=#97E861;" parent="1" vertex="1">
          <mxGeometry x="500" y="556.5" width="20" height="20" as="geometry" />
        </mxCell>
        <mxCell id="139" value="2" style="ellipse;whiteSpace=wrap;html=1;aspect=fixed;strokeWidth=2;fontFamily=Tahoma;spacingBottom=4;spacingRight=2;strokeColor=#d3d3d3;fontColor=#000000;fillColor=#97E861;" parent="1" vertex="1">
          <mxGeometry x="575" y="582" width="20" height="20" as="geometry" />
        </mxCell>
        <mxCell id="141" value="3" style="ellipse;whiteSpace=wrap;html=1;aspect=fixed;strokeWidth=2;fontFamily=Tahoma;spacingBottom=4;spacingRight=2;strokeColor=#d3d3d3;fontColor=#000000;fillColor=#97E861;" parent="1" vertex="1">
          <mxGeometry x="616" y="560" width="20" height="20" as="geometry" />
        </mxCell>
        <mxCell id="142" value="4" style="ellipse;whiteSpace=wrap;html=1;aspect=fixed;strokeWidth=2;fontFamily=Tahoma;spacingBottom=4;spacingRight=2;strokeColor=#d3d3d3;fontColor=#000000;fillColor=#97E861;" parent="1" vertex="1">
          <mxGeometry x="644" y="523" width="20" height="20" as="geometry" />
        </mxCell>
        <mxCell id="143" value="5" style="ellipse;whiteSpace=wrap;html=1;aspect=fixed;strokeWidth=2;fontFamily=Tahoma;spacingBottom=4;spacingRight=2;strokeColor=#d3d3d3;fontColor=#000000;fillColor=#97E861;" parent="1" vertex="1">
          <mxGeometry x="657.03" y="455" width="20" height="20" as="geometry" />
        </mxCell>
        <mxCell id="144" value="7" style="ellipse;whiteSpace=wrap;html=1;aspect=fixed;strokeWidth=2;fontFamily=Tahoma;spacingBottom=4;spacingRight=2;strokeColor=#d3d3d3;fontColor=#000000;fillColor=#97E861;" parent="1" vertex="1">
          <mxGeometry x="624" y="365" width="20" height="20" as="geometry" />
        </mxCell>
        <mxCell id="145" value="1" style="ellipse;whiteSpace=wrap;html=1;aspect=fixed;strokeWidth=2;fontFamily=Tahoma;spacingBottom=4;spacingRight=2;strokeColor=#d3d3d3;fontColor=#000000;fillColor=#F8CECC;" parent="1" vertex="1">
          <mxGeometry x="468" y="894" width="20" height="20" as="geometry" />
        </mxCell>
        <mxCell id="146" value="2" style="ellipse;whiteSpace=wrap;html=1;aspect=fixed;strokeWidth=2;fontFamily=Tahoma;spacingBottom=4;spacingRight=2;strokeColor=#d3d3d3;fontColor=#000000;fillColor=#F8CECC;" parent="1" vertex="1">
          <mxGeometry x="510" y="869" width="20" height="20" as="geometry" />
        </mxCell>
        <mxCell id="148" value="3" style="ellipse;whiteSpace=wrap;html=1;aspect=fixed;strokeWidth=2;fontFamily=Tahoma;spacingBottom=4;spacingRight=2;strokeColor=#d3d3d3;fontColor=#000000;fillColor=#F8CECC;" parent="1" vertex="1">
          <mxGeometry x="580" y="777" width="20" height="20" as="geometry" />
        </mxCell>
        <mxCell id="149" value="4" style="ellipse;whiteSpace=wrap;html=1;aspect=fixed;strokeWidth=2;fontFamily=Tahoma;spacingBottom=4;spacingRight=2;strokeColor=#d3d3d3;fontColor=#000000;fillColor=#F8CECC;" parent="1" vertex="1">
          <mxGeometry x="595" y="862" width="20" height="20" as="geometry" />
        </mxCell>
        <mxCell id="150" value="1" style="ellipse;whiteSpace=wrap;html=1;aspect=fixed;strokeWidth=2;fontFamily=Tahoma;spacingBottom=4;spacingRight=2;strokeColor=#d3d3d3;fillColor=#1BA1E2;fontColor=#FFFFFF;" parent="1" vertex="1">
          <mxGeometry x="983" y="949" width="20" height="20" as="geometry" />
        </mxCell>
        <mxCell id="151" value="2" style="ellipse;whiteSpace=wrap;html=1;aspect=fixed;strokeWidth=2;fontFamily=Tahoma;spacingBottom=4;spacingRight=2;strokeColor=#d3d3d3;fillColor=#1BA1E2;fontColor=#FFFFFF;" parent="1" vertex="1">
          <mxGeometry x="990" y="886" width="20" height="20" as="geometry" />
        </mxCell>
        <mxCell id="152" value="3" style="ellipse;whiteSpace=wrap;html=1;aspect=fixed;strokeWidth=2;fontFamily=Tahoma;spacingBottom=4;spacingRight=2;strokeColor=#d3d3d3;fillColor=#1BA1E2;fontColor=#FFFFFF;" parent="1" vertex="1">
          <mxGeometry x="1035" y="814" width="20" height="20" as="geometry" />
        </mxCell>
        <mxCell id="153" value="4" style="ellipse;whiteSpace=wrap;html=1;aspect=fixed;strokeWidth=2;fontFamily=Tahoma;spacingBottom=4;spacingRight=2;strokeColor=#d3d3d3;fillColor=#1BA1E2;fontColor=#FFFFFF;" parent="1" vertex="1">
          <mxGeometry x="1170" y="814" width="20" height="20" as="geometry" />
        </mxCell>
        <mxCell id="154" value="5" style="ellipse;whiteSpace=wrap;html=1;aspect=fixed;strokeWidth=2;fontFamily=Tahoma;spacingBottom=4;spacingRight=2;strokeColor=#d3d3d3;fillColor=#1BA1E2;fontColor=#FFFFFF;" parent="1" vertex="1">
          <mxGeometry x="1242" y="896" width="20" height="20" as="geometry" />
        </mxCell>
        <mxCell id="155" value="1" style="ellipse;whiteSpace=wrap;html=1;aspect=fixed;strokeWidth=2;fontFamily=Tahoma;spacingBottom=4;spacingRight=2;strokeColor=#d3d3d3;fontColor=#FFFFFF;fillColor=#D80073;" parent="1" vertex="1">
          <mxGeometry x="1200" y="455" width="20" height="20" as="geometry" />
        </mxCell>
        <mxCell id="156" value="2" style="ellipse;whiteSpace=wrap;html=1;aspect=fixed;strokeWidth=2;fontFamily=Tahoma;spacingBottom=4;spacingRight=2;strokeColor=#d3d3d3;fontColor=#FFFFFF;fillColor=#D80073;" parent="1" vertex="1">
          <mxGeometry x="1155" y="365" width="20" height="20" as="geometry" />
        </mxCell>
        <mxCell id="157" value="1" style="ellipse;whiteSpace=wrap;html=1;aspect=fixed;strokeWidth=2;fontFamily=Tahoma;spacingBottom=4;spacingRight=2;strokeColor=#d3d3d3;fillColor=#FFFFFF;fontColor=#000000;" parent="1" vertex="1">
          <mxGeometry x="1471" y="894" width="20" height="20" as="geometry" />
        </mxCell>
        <mxCell id="160" value="6" style="ellipse;whiteSpace=wrap;html=1;aspect=fixed;strokeWidth=2;fontFamily=Tahoma;spacingBottom=4;spacingRight=2;strokeColor=#d3d3d3;fillColor=#FFFFFF;fontColor=#000000;" parent="1" vertex="1">
          <mxGeometry x="1567" y="842" width="20" height="20" as="geometry" />
        </mxCell>
        <mxCell id="161" value="3" style="ellipse;whiteSpace=wrap;html=1;aspect=fixed;strokeWidth=2;fontFamily=Tahoma;spacingBottom=4;spacingRight=2;strokeColor=#d3d3d3;fillColor=#FFFFFF;fontColor=#000000;" parent="1" vertex="1">
          <mxGeometry x="1637.03" y="814" width="20" height="20" as="geometry" />
        </mxCell>
        <mxCell id="163" value="7" style="ellipse;whiteSpace=wrap;html=1;aspect=fixed;strokeWidth=2;fontFamily=Tahoma;spacingBottom=4;spacingRight=2;strokeColor=#d3d3d3;fillColor=#FFFFFF;fontColor=#000000;" parent="1" vertex="1">
          <mxGeometry x="1572" y="629" width="20" height="20" as="geometry" />
        </mxCell>
        <mxCell id="164" value="2" style="ellipse;whiteSpace=wrap;html=1;aspect=fixed;strokeWidth=2;fontFamily=Tahoma;spacingBottom=4;spacingRight=2;strokeColor=#d3d3d3;fillColor=#FFFFFF;fontColor=#000000;" parent="1" vertex="1">
          <mxGeometry x="1292" y="593" width="20" height="20" as="geometry" />
        </mxCell>
        <mxCell id="165" value="4" style="ellipse;whiteSpace=wrap;html=1;aspect=fixed;strokeWidth=2;fontFamily=Tahoma;spacingBottom=4;spacingRight=2;strokeColor=#d3d3d3;fillColor=#FFFFFF;fontColor=#000000;" parent="1" vertex="1">
          <mxGeometry x="1780" y="503" width="20" height="20" as="geometry" />
        </mxCell>
        <mxCell id="167" value="" style="icon;html=1;labelBackgroundColor=none;labelPosition=center;verticalLabelPosition=bottom;align=center;verticalAlign=top;strokeColor=#000000;fontColor=#FFFFFF;gradientColor=#ffffff;gradientDirection=north;opacity=80;fillColor=#C4E8BA;" parent="1" vertex="1">
          <mxGeometry x="397" y="45.5" width="402" height="244.5" as="geometry" />
        </mxCell>
        <mxCell id="168" value="" style="icon;html=1;labelBackgroundColor=none;labelPosition=center;verticalLabelPosition=bottom;align=center;verticalAlign=top;strokeColor=#000000;fontColor=#FFFFFF;fillColor=#D872B6;gradientColor=#ffffff;gradientDirection=north;" parent="1" vertex="1">
          <mxGeometry x="934" y="42.25" width="402" height="207.5" as="geometry" />
        </mxCell>
        <mxCell id="169" value="" style="icon;html=1;labelBackgroundColor=none;labelPosition=center;verticalLabelPosition=bottom;align=center;verticalAlign=top;strokeColor=#000000;fontColor=#FFFFFF;gradientColor=#ffffff;fillColor=#F8DBD5;" parent="1" vertex="1">
          <mxGeometry x="397" y="1108" width="402" height="207.5" as="geometry" />
        </mxCell>
        <mxCell id="170" value="" style="icon;html=1;labelBackgroundColor=none;labelPosition=center;verticalLabelPosition=bottom;align=center;verticalAlign=top;strokeColor=#000000;fontColor=#FFFFFF;gradientColor=#ffffff;fillColor=#6CB3E2;" parent="1" vertex="1">
          <mxGeometry x="922" y="1105" width="402" height="207.5" as="geometry" />
        </mxCell>
        <mxCell id="171" value="" style="icon;html=1;labelBackgroundColor=none;labelPosition=center;verticalLabelPosition=bottom;align=center;verticalAlign=top;strokeColor=#000000;fillColor=#FFFFFF;fontColor=#FFFFFF;" parent="1" vertex="1">
          <mxGeometry x="1874" y="391" width="287" height="478" as="geometry" />
        </mxCell>
        <mxCell id="172" value="1" style="ellipse;whiteSpace=wrap;html=1;aspect=fixed;strokeWidth=2;fontFamily=Tahoma;spacingBottom=4;spacingRight=2;strokeColor=#d3d3d3;fontColor=#000000;fillColor=#97E861;" parent="1" vertex="1">
          <mxGeometry x="440" y="87" width="20" height="20" as="geometry" />
        </mxCell>
        <mxCell id="173" value="Manages their profile - personal, &lt;br&gt;health, nutrional, payment &amp;amp; preferences" style="text;html=1;align=left;verticalAlign=middle;resizable=0;points=[];autosize=1;fontColor=#000000;" parent="1" vertex="1">
          <mxGeometry x="468" y="81" width="226" height="32" as="geometry" />
        </mxCell>
        <mxCell id="174" value="2" style="ellipse;whiteSpace=wrap;html=1;aspect=fixed;strokeWidth=2;fontFamily=Tahoma;spacingBottom=4;spacingRight=2;strokeColor=#d3d3d3;fontColor=#000000;fillColor=#97E861;" parent="1" vertex="1">
          <mxGeometry x="440" y="119" width="20" height="20" as="geometry" />
        </mxCell>
        <mxCell id="175" value="Accesses menu" style="text;html=1;align=left;verticalAlign=middle;resizable=0;points=[];autosize=1;fontColor=#000000;" parent="1" vertex="1">
          <mxGeometry x="468" y="120" width="95" height="18" as="geometry" />
        </mxCell>
        <mxCell id="176" value="3" style="ellipse;whiteSpace=wrap;html=1;aspect=fixed;strokeWidth=2;fontFamily=Tahoma;spacingBottom=4;spacingRight=2;strokeColor=#d3d3d3;fontColor=#000000;fillColor=#97E861;" parent="1" vertex="1">
          <mxGeometry x="440" y="145" width="20" height="20" as="geometry" />
        </mxCell>
        <mxCell id="177" value="Accesses promotions and coupons" style="text;html=1;align=left;verticalAlign=middle;resizable=0;points=[];autosize=1;fontColor=#000000;" parent="1" vertex="1">
          <mxGeometry x="468" y="146" width="196" height="18" as="geometry" />
        </mxCell>
        <mxCell id="178" value="4" style="ellipse;whiteSpace=wrap;html=1;aspect=fixed;strokeWidth=2;fontFamily=Tahoma;spacingBottom=4;spacingRight=2;strokeColor=#d3d3d3;fontColor=#000000;fillColor=#97E861;" parent="1" vertex="1">
          <mxGeometry x="441.03" y="173" width="20" height="20" as="geometry" />
        </mxCell>
        <mxCell id="179" value="Places orders" style="text;html=1;align=left;verticalAlign=middle;resizable=0;points=[];autosize=1;fontColor=#000000;" parent="1" vertex="1">
          <mxGeometry x="469.03" y="174" width="83" height="18" as="geometry" />
        </mxCell>
        <mxCell id="180" value="5" style="ellipse;whiteSpace=wrap;html=1;aspect=fixed;strokeWidth=2;fontFamily=Tahoma;spacingBottom=4;spacingRight=2;strokeColor=#d3d3d3;fontColor=#000000;fillColor=#97E861;" parent="1" vertex="1">
          <mxGeometry x="441.03" y="203" width="20" height="20" as="geometry" />
        </mxCell>
        <mxCell id="181" value="Provides feedback on food and vendors" style="text;html=1;align=left;verticalAlign=middle;resizable=0;points=[];autosize=1;fontColor=#000000;" parent="1" vertex="1">
          <mxGeometry x="469.03" y="204" width="221" height="18" as="geometry" />
        </mxCell>
        <mxCell id="182" value="6" style="ellipse;whiteSpace=wrap;html=1;aspect=fixed;strokeWidth=2;fontFamily=Tahoma;spacingBottom=4;spacingRight=2;strokeColor=#d3d3d3;fontColor=#000000;fillColor=#97E861;" parent="1" vertex="1">
          <mxGeometry x="440" y="234" width="20" height="20" as="geometry" />
        </mxCell>
        <mxCell id="183" value="Access Point Of Sale locations using GPS coordinates" style="text;html=1;align=left;verticalAlign=middle;resizable=0;points=[];autosize=1;fontColor=#000000;" parent="1" vertex="1">
          <mxGeometry x="468" y="235" width="299" height="18" as="geometry" />
        </mxCell>
        <mxCell id="185" value="5" style="ellipse;whiteSpace=wrap;html=1;aspect=fixed;strokeWidth=2;fontFamily=Tahoma;spacingBottom=4;spacingRight=2;strokeColor=#d3d3d3;fillColor=#FFFFFF;fontColor=#000000;" parent="1" vertex="1">
          <mxGeometry x="1710" y="499" width="20" height="20" as="geometry" />
        </mxCell>
        <mxCell id="186" value="Customer flow" style="text;html=1;align=center;verticalAlign=middle;resizable=0;points=[];autosize=1;fontColor=#000000;" parent="1" vertex="1">
          <mxGeometry x="440.02" y="55" width="87" height="18" as="geometry" />
        </mxCell>
        <mxCell id="188" value="Receives service notification from the scheduling service" style="text;html=1;align=left;verticalAlign=middle;resizable=0;points=[];autosize=1;fontColor=#000000;" parent="1" vertex="1">
          <mxGeometry x="997" y="89" width="311" height="18" as="geometry" />
        </mxCell>
        <mxCell id="190" value="Delivers food/maintains Point Of Sale (Kiosk/Smart Fridges)" style="text;html=1;align=left;verticalAlign=middle;resizable=0;points=[];autosize=1;fontColor=#000000;" parent="1" vertex="1">
          <mxGeometry x="997" y="121" width="328" height="18" as="geometry" />
        </mxCell>
        <mxCell id="199" value="Service Agent Flow" style="text;html=1;align=center;verticalAlign=middle;resizable=0;points=[];autosize=1;fontColor=#000000;" parent="1" vertex="1">
          <mxGeometry x="966.02" y="56" width="113" height="18" as="geometry" />
        </mxCell>
        <mxCell id="200" value="1" style="ellipse;whiteSpace=wrap;html=1;aspect=fixed;strokeWidth=2;fontFamily=Tahoma;spacingBottom=4;spacingRight=2;strokeColor=#d3d3d3;fontColor=#FFFFFF;fillColor=#D80073;" parent="1" vertex="1">
          <mxGeometry x="966.02" y="88" width="20" height="20" as="geometry" />
        </mxCell>
        <mxCell id="201" value="2" style="ellipse;whiteSpace=wrap;html=1;aspect=fixed;strokeWidth=2;fontFamily=Tahoma;spacingBottom=4;spacingRight=2;strokeColor=#d3d3d3;fontColor=#FFFFFF;fillColor=#D80073;" parent="1" vertex="1">
          <mxGeometry x="966.02" y="123" width="20" height="20" as="geometry" />
        </mxCell>
        <mxCell id="204" value="Manages customer/vendor profiles" style="text;html=1;align=left;verticalAlign=middle;resizable=0;points=[];autosize=1;fontColor=#000000;" parent="1" vertex="1">
          <mxGeometry x="452" y="1162" width="194" height="18" as="geometry" />
        </mxCell>
        <mxCell id="206" value="Admin Flow" style="text;html=1;align=left;verticalAlign=middle;resizable=0;points=[];autosize=1;fontColor=#000000;" parent="1" vertex="1">
          <mxGeometry x="424.03" y="1128" width="73" height="18" as="geometry" />
        </mxCell>
        <mxCell id="209" value="1" style="ellipse;whiteSpace=wrap;html=1;aspect=fixed;strokeWidth=2;fontFamily=Tahoma;spacingBottom=4;spacingRight=2;strokeColor=#d3d3d3;fontColor=#000000;fillColor=#F8CECC;" parent="1" vertex="1">
          <mxGeometry x="420" y="1161" width="20" height="20" as="geometry" />
        </mxCell>
        <mxCell id="210" value="Manages menus" style="text;html=1;align=left;verticalAlign=middle;resizable=0;points=[];autosize=1;fontColor=#000000;" parent="1" vertex="1">
          <mxGeometry x="453.03" y="1189" width="99" height="18" as="geometry" />
        </mxCell>
        <mxCell id="211" value="2" style="ellipse;whiteSpace=wrap;html=1;aspect=fixed;strokeWidth=2;fontFamily=Tahoma;spacingBottom=4;spacingRight=2;strokeColor=#d3d3d3;fontColor=#000000;fillColor=#F8CECC;" parent="1" vertex="1">
          <mxGeometry x="421.03" y="1188" width="20" height="20" as="geometry" />
        </mxCell>
        <mxCell id="212" value="Manages customer feedback and rating" style="text;html=1;align=left;verticalAlign=middle;resizable=0;points=[];autosize=1;fontColor=#000000;" parent="1" vertex="1">
          <mxGeometry x="453.03" y="1215" width="221" height="18" as="geometry" />
        </mxCell>
        <mxCell id="213" value="3" style="ellipse;whiteSpace=wrap;html=1;aspect=fixed;strokeWidth=2;fontFamily=Tahoma;spacingBottom=4;spacingRight=2;strokeColor=#d3d3d3;fontColor=#000000;fillColor=#F8CECC;" parent="1" vertex="1">
          <mxGeometry x="421.03" y="1214" width="20" height="20" as="geometry" />
        </mxCell>
        <mxCell id="214" value="Manages promotions, coupons and marketing" style="text;html=1;align=left;verticalAlign=middle;resizable=0;points=[];autosize=1;fontColor=#000000;" parent="1" vertex="1">
          <mxGeometry x="454.05999999999995" y="1242" width="253" height="18" as="geometry" />
        </mxCell>
        <mxCell id="215" value="4" style="ellipse;whiteSpace=wrap;html=1;aspect=fixed;strokeWidth=2;fontFamily=Tahoma;spacingBottom=4;spacingRight=2;strokeColor=#d3d3d3;fontColor=#000000;fillColor=#F8CECC;" parent="1" vertex="1">
          <mxGeometry x="422.05999999999995" y="1241" width="20" height="20" as="geometry" />
        </mxCell>
        <mxCell id="227" value="Manages vendor specific menus" style="text;html=1;align=left;verticalAlign=middle;resizable=0;points=[];autosize=1;fontColor=#000000;" parent="1" vertex="1">
          <mxGeometry x="985" y="1162" width="182" height="18" as="geometry" />
        </mxCell>
        <mxCell id="228" value="Food vendor flow" style="text;html=1;align=left;verticalAlign=middle;resizable=0;points=[];autosize=1;fontColor=#000000;" parent="1" vertex="1">
          <mxGeometry x="957.03" y="1128" width="102" height="18" as="geometry" />
        </mxCell>
        <mxCell id="230" value="Manages vendor profile" style="text;html=1;align=left;verticalAlign=middle;resizable=0;points=[];autosize=1;fontColor=#000000;" parent="1" vertex="1">
          <mxGeometry x="986.03" y="1189" width="135" height="18" as="geometry" />
        </mxCell>
        <mxCell id="231" value="2" style="ellipse;whiteSpace=wrap;html=1;aspect=fixed;strokeWidth=2;fontFamily=Tahoma;spacingBottom=4;spacingRight=2;strokeColor=#d3d3d3;fillColor=#1BA1E2;fontColor=#FFFFFF;" parent="1" vertex="1">
          <mxGeometry x="954.03" y="1189" width="20" height="20" as="geometry" />
        </mxCell>
        <mxCell id="232" value="Accesses vendor feedback, replies to feedback" style="text;html=1;align=left;verticalAlign=middle;resizable=0;points=[];autosize=1;fontColor=#000000;" parent="1" vertex="1">
          <mxGeometry x="986.03" y="1215" width="261" height="18" as="geometry" />
        </mxCell>
        <mxCell id="233" value="3" style="ellipse;whiteSpace=wrap;html=1;aspect=fixed;strokeWidth=2;fontFamily=Tahoma;spacingBottom=4;spacingRight=2;strokeColor=#d3d3d3;fontColor=#FFFFFF;fillColor=#1BA1E2;" parent="1" vertex="1">
          <mxGeometry x="954.03" y="1214" width="20" height="20" as="geometry" />
        </mxCell>
        <mxCell id="234" value="Receives order notifications" style="text;html=1;align=left;verticalAlign=middle;resizable=0;points=[];autosize=1;fontColor=#000000;" parent="1" vertex="1">
          <mxGeometry x="987.06" y="1242" width="157" height="18" as="geometry" />
        </mxCell>
        <mxCell id="235" value="4" style="ellipse;whiteSpace=wrap;html=1;aspect=fixed;strokeWidth=2;fontFamily=Tahoma;spacingBottom=4;spacingRight=2;strokeColor=#d3d3d3;fillColor=#1BA1E2;fontColor=#FFFFFF;" parent="1" vertex="1">
          <mxGeometry x="955.06" y="1241" width="20" height="20" as="geometry" />
        </mxCell>
        <mxCell id="236" value="Services orders" style="text;html=1;align=left;verticalAlign=middle;resizable=0;points=[];autosize=1;fontColor=#000000;" parent="1" vertex="1">
          <mxGeometry x="986.03" y="1271" width="93" height="18" as="geometry" />
        </mxCell>
        <mxCell id="237" value="5" style="ellipse;whiteSpace=wrap;html=1;aspect=fixed;strokeWidth=2;fontFamily=Tahoma;spacingBottom=4;spacingRight=2;strokeColor=#d3d3d3;fillColor=#1BA1E2;fontColor=#FFFFFF;" parent="1" vertex="1">
          <mxGeometry x="954.03" y="1270" width="20" height="20" as="geometry" />
        </mxCell>
        <mxCell id="238" value="1" style="ellipse;whiteSpace=wrap;html=1;aspect=fixed;strokeWidth=2;fontFamily=Tahoma;spacingBottom=4;spacingRight=2;strokeColor=#d3d3d3;fillColor=#1BA1E2;fontColor=#FFFFFF;" parent="1" vertex="1">
          <mxGeometry x="955.06" y="1161" width="20" height="20" as="geometry" />
        </mxCell>
        <mxCell id="239" value="" style="html=1;strokeWidth=1;shadow=0;dashed=0;shape=mxgraph.ios7.misc.notification;fillColor=#FF3B2F;strokeColor=none;buttonText=;strokeColor2=#222222;fontColor=#222222;fontSize=8;verticalLabelPosition=bottom;verticalAlign=top;align=center;sketch=0;" parent="1" vertex="1">
          <mxGeometry x="1200" y="769" width="34" height="27" as="geometry" />
        </mxCell>
        <mxCell id="240" value="" style="html=1;strokeWidth=1;shadow=0;dashed=0;shape=mxgraph.ios7.misc.notification;fillColor=#FF3B2F;strokeColor=none;buttonText=;strokeColor2=#222222;fontColor=#222222;fontSize=8;verticalLabelPosition=bottom;verticalAlign=top;align=center;sketch=0;" parent="1" vertex="1">
          <mxGeometry x="100" y="411" width="34" height="27" as="geometry" />
        </mxCell>
        <mxCell id="241" value="Notification" style="text;html=1;align=center;verticalAlign=middle;resizable=0;points=[];autosize=1;fontColor=#000000;" parent="1" vertex="1">
          <mxGeometry x="140" y="419" width="69" height="18" as="geometry" />
        </mxCell>
        <mxCell id="242" value="" style="pointerEvents=1;shadow=0;dashed=0;html=1;strokeColor=none;fillColor=#DF8C42;labelPosition=center;verticalLabelPosition=bottom;verticalAlign=top;align=center;outlineConnect=0;shape=mxgraph.veeam2.scheduled_backups;sketch=0;fontColor=#FFFFFF;" parent="1" vertex="1">
          <mxGeometry x="103" y="459" width="28" height="24" as="geometry" />
        </mxCell>
        <mxCell id="243" value="CRON job" style="text;html=1;align=center;verticalAlign=middle;resizable=0;points=[];autosize=1;fontColor=#000000;" parent="1" vertex="1">
          <mxGeometry x="143" y="460.5" width="65" height="18" as="geometry" />
        </mxCell>
        <mxCell id="244" value="Generates order notifications&lt;br&gt;based on inventory reports" style="text;html=1;align=left;verticalAlign=middle;resizable=0;points=[];autosize=1;fontColor=#000000;" parent="1" vertex="1">
          <mxGeometry x="1936.5" y="440" width="164" height="32" as="geometry" />
        </mxCell>
        <mxCell id="245" value="System (Non-User) flow" style="text;html=1;align=left;verticalAlign=middle;resizable=0;points=[];autosize=1;fontColor=#000000;" parent="1" vertex="1">
          <mxGeometry x="1908.53" y="413" width="137" height="18" as="geometry" />
        </mxCell>
        <mxCell id="249" value="1" style="ellipse;whiteSpace=wrap;html=1;aspect=fixed;strokeWidth=2;fontFamily=Tahoma;spacingBottom=4;spacingRight=2;strokeColor=#d3d3d3;fillColor=#FFFFFF;fontColor=#000000;" parent="1" vertex="1">
          <mxGeometry x="1908.53" y="447" width="20" height="20" as="geometry" />
        </mxCell>
        <mxCell id="251" value="Order completion notification&lt;br&gt;sent to service scheduler for delivery" style="text;html=1;align=left;verticalAlign=middle;resizable=0;points=[];autosize=1;fontColor=#000000;" parent="1" vertex="1">
          <mxGeometry x="1936.5" y="478.5" width="205" height="32" as="geometry" />
        </mxCell>
        <mxCell id="252" value="2" style="ellipse;whiteSpace=wrap;html=1;aspect=fixed;strokeWidth=2;fontFamily=Tahoma;spacingBottom=4;spacingRight=2;strokeColor=#d3d3d3;fillColor=#FFFFFF;fontColor=#000000;" parent="1" vertex="1">
          <mxGeometry x="1908.53" y="485.5" width="20" height="20" as="geometry" />
        </mxCell>
        <mxCell id="253" value="CRON job to collect ineventory reports&lt;br&gt;and purchase records" style="text;html=1;align=left;verticalAlign=middle;resizable=0;points=[];autosize=1;fontColor=#000000;" parent="1" vertex="1">
          <mxGeometry x="1936.5" y="517" width="215" height="32" as="geometry" />
        </mxCell>
        <mxCell id="254" value="3" style="ellipse;whiteSpace=wrap;html=1;aspect=fixed;strokeWidth=2;fontFamily=Tahoma;spacingBottom=4;spacingRight=2;strokeColor=#d3d3d3;fillColor=#FFFFFF;fontColor=#000000;" parent="1" vertex="1">
          <mxGeometry x="1908.53" y="524" width="20" height="20" as="geometry" />
        </mxCell>
        <mxCell id="258" value="5" style="ellipse;whiteSpace=wrap;html=1;aspect=fixed;strokeWidth=2;fontFamily=Tahoma;spacingBottom=4;spacingRight=2;strokeColor=#d3d3d3;fontColor=#000000;fillColor=#F8CECC;" parent="1" vertex="1">
          <mxGeometry x="654.03" y="857" width="20" height="20" as="geometry" />
        </mxCell>
        <mxCell id="259" value="Manages Point Of Sale (Kiosk/Smart Fridge)&lt;br&gt;maintenance schedule" style="text;html=1;align=left;verticalAlign=middle;resizable=0;points=[];autosize=1;fontColor=#000000;" parent="1" vertex="1">
          <mxGeometry x="453.03" y="1264" width="247" height="32" as="geometry" />
        </mxCell>
        <mxCell id="260" value="5" style="ellipse;whiteSpace=wrap;html=1;aspect=fixed;strokeWidth=2;fontFamily=Tahoma;spacingBottom=4;spacingRight=2;strokeColor=#d3d3d3;fontColor=#000000;fillColor=#F8CECC;" parent="1" vertex="1">
          <mxGeometry x="421.03" y="1270" width="20" height="20" as="geometry" />
        </mxCell>
        <mxCell id="261" value="Point Of Sale (Kiosk/Smart Fridges) &lt;br&gt;sends inventory/purchase updates" style="text;html=1;align=left;verticalAlign=middle;resizable=0;points=[];autosize=1;fontColor=#000000;" parent="1" vertex="1">
          <mxGeometry x="1936.5" y="560" width="200" height="32" as="geometry" />
        </mxCell>
        <mxCell id="262" value="4" style="ellipse;whiteSpace=wrap;html=1;aspect=fixed;strokeWidth=2;fontFamily=Tahoma;spacingBottom=4;spacingRight=2;strokeColor=#d3d3d3;fillColor=#FFFFFF;fontColor=#000000;" parent="1" vertex="1">
          <mxGeometry x="1908.53" y="567" width="20" height="20" as="geometry" />
        </mxCell>
        <mxCell id="263" value="Point Of Sale (Kiosk/Smart Fridges) &lt;br&gt;validates orders with order service" style="text;html=1;align=left;verticalAlign=middle;resizable=0;points=[];autosize=1;fontColor=#000000;" parent="1" vertex="1">
          <mxGeometry x="1936.5" y="598.5" width="200" height="32" as="geometry" />
        </mxCell>
        <mxCell id="264" value="5" style="ellipse;whiteSpace=wrap;html=1;aspect=fixed;strokeWidth=2;fontFamily=Tahoma;spacingBottom=4;spacingRight=2;strokeColor=#d3d3d3;fillColor=#FFFFFF;fontColor=#000000;" parent="1" vertex="1">
          <mxGeometry x="1908.53" y="605.5" width="20" height="20" as="geometry" />
        </mxCell>
        <mxCell id="265" value="CRON job for processing &lt;br&gt;pending payments" style="text;html=1;align=left;verticalAlign=middle;resizable=0;points=[];autosize=1;fontColor=#000000;" parent="1" vertex="1">
          <mxGeometry x="1936.5" y="637" width="143" height="32" as="geometry" />
        </mxCell>
        <mxCell id="266" value="6" style="ellipse;whiteSpace=wrap;html=1;aspect=fixed;strokeWidth=2;fontFamily=Tahoma;spacingBottom=4;spacingRight=2;strokeColor=#d3d3d3;fillColor=#FFFFFF;fontColor=#000000;" parent="1" vertex="1">
          <mxGeometry x="1908.53" y="644" width="20" height="20" as="geometry" />
        </mxCell>
        <mxCell id="267" value="Payment services uses profile service&lt;br&gt;to collect mode of payment &lt;br&gt;before processing" style="text;html=1;align=left;verticalAlign=middle;resizable=0;points=[];autosize=1;fontColor=#000000;" parent="1" vertex="1">
          <mxGeometry x="1936.5" y="674" width="211" height="46" as="geometry" />
        </mxCell>
        <mxCell id="268" value="7" style="ellipse;whiteSpace=wrap;html=1;aspect=fixed;strokeWidth=2;fontFamily=Tahoma;spacingBottom=4;spacingRight=2;strokeColor=#d3d3d3;fillColor=#FFFFFF;fontColor=#000000;" parent="1" vertex="1">
          <mxGeometry x="1908.53" y="688" width="20" height="20" as="geometry" />
        </mxCell>
        <mxCell id="270" value="" style="pointerEvents=1;shadow=0;dashed=0;html=1;strokeColor=none;fillColor=#DF8C42;labelPosition=center;verticalLabelPosition=bottom;verticalAlign=top;align=center;outlineConnect=0;shape=mxgraph.veeam2.scheduled_backups;sketch=0;fontColor=#FFFFFF;" parent="1" vertex="1">
          <mxGeometry x="1581" y="769" width="28" height="24" as="geometry" />
        </mxCell>
        <mxCell id="273" value="6" style="ellipse;whiteSpace=wrap;html=1;aspect=fixed;strokeWidth=2;fontFamily=Tahoma;spacingBottom=4;spacingRight=2;strokeColor=#d3d3d3;fontColor=#000000;fillColor=#97E861;" parent="1" vertex="1">
          <mxGeometry x="844" y="472" width="20" height="20" as="geometry" />
        </mxCell>
        <mxCell id="274" value="7" style="ellipse;whiteSpace=wrap;html=1;aspect=fixed;strokeWidth=2;fontFamily=Tahoma;spacingBottom=4;spacingRight=2;strokeColor=#d3d3d3;fontColor=#000000;fillColor=#97E861;" parent="1" vertex="1">
          <mxGeometry x="440" y="264" width="20" height="20" as="geometry" />
        </mxCell>
        <mxCell id="275" value="Picks up food from point of sale" style="text;html=1;align=left;verticalAlign=middle;resizable=0;points=[];autosize=1;fontColor=#000000;" parent="1" vertex="1">
          <mxGeometry x="468" y="265" width="177" height="18" as="geometry" />
        </mxCell>
      </root>
    </mxGraphModel>
  </diagram>
</mxfile>
